<?xml version="1.0" encoding="UTF-8"?>
<svg width="26px" height="26px" viewBox="0 0 26 26" version="1.1" xmlns="http://www.w3.org/2000/svg" xmlns:xlink="http://www.w3.org/1999/xlink">
    <title>编组 16</title>
    <g id="页面-1" stroke="none" stroke-width="1" fill="none" fill-rule="evenodd">
        <g id="画板" transform="translate(-811.000000, -314.000000)">
            <g id="编组-16" transform="translate(811.000000, 314.000000)">
                <rect id="矩形备份-9" fill="#D8D8D8" opacity="0" x="0" y="0" width="26" height="26"></rect>
                <g id="调色盘_platte" transform="translate(1.000000, 1.000000)">
                    <rect id="矩形" fill-opacity="0.01" fill="#FFFFFF" fill-rule="nonzero" x="0" y="0" width="24" height="24"></rect>
                    <path d="M12,22 C14.98005,22 13.16795,17.568 15,15.5 C16.5632,13.73545 22,14.5428 22,12 C22,6.47715 17.52285,2 12,2 C6.47715,2 2,6.47715 2,12 C2,17.52285 6.47715,22 12,22 Z" id="路径" stroke="#2D2F31" stroke-width="1.5" stroke-linejoin="round"></path>
                    <path d="M14,8.5 C14.82845,8.5 15.5,7.82845 15.5,7 C15.5,6.17155 14.82845,5.5 14,5.5 C13.17155,5.5 12.5,6.17155 12.5,7 C12.5,7.82845 13.17155,8.5 14,8.5 Z" id="路径" stroke="#2D2F31" stroke-width="1.5" stroke-linejoin="round"></path>
                    <path d="M8,10.5 C8.82845,10.5 9.5,9.82845 9.5,9 C9.5,8.17155 8.82845,7.5 8,7.5 C7.17155,7.5 6.5,8.17155 6.5,9 C6.5,9.82845 7.17155,10.5 8,10.5 Z" id="路径" stroke="#2D2F31" stroke-width="1.5" stroke-linejoin="round"></path>
                    <path d="M8.5,17 C9.32845,17 10,16.32845 10,15.5 C10,14.67155 9.32845,14 8.5,14 C7.67155,14 7,14.67155 7,15.5 C7,16.32845 7.67155,17 8.5,17 Z" id="路径" stroke="#2D2F31" stroke-width="1.5" stroke-linejoin="round"></path>
                </g>
            </g>
        </g>
    </g>
</svg>