<?xml version="1.0" encoding="UTF-8"?>
<svg width="26px" height="26px" viewBox="0 0 26 26" version="1.1" xmlns="http://www.w3.org/2000/svg" xmlns:xlink="http://www.w3.org/1999/xlink">
    <title>编组 10</title>
    <g id="页面-1" stroke="none" stroke-width="1" fill="none" fill-rule="evenodd">
        <g id="画板" transform="translate(-349.000000, -314.000000)">
            <g id="编组-10" transform="translate(349.000000, 314.000000)">
                <rect id="矩形" fill="#D8D8D8" opacity="0" x="0" y="0" width="26" height="26"></rect>
                <g id="大脑_brain" transform="translate(1.000000, 1.000000)">
                    <rect id="矩形" fill-opacity="0.01" fill="#FFFFFF" fill-rule="nonzero" x="0" y="0" width="24" height="24"></rect>
                    <path d="M9.518,22.00005 C9.02805,20.40225 8.2889,19.2111 7.30055,18.4266 C5.818,17.24985 3.462415,17.9812 2.59229,16.76745 C1.722165,15.55365 3.20191,13.32155 3.72117,12.0045 C4.24043,10.6875 1.730895,10.2218 2.02388,9.8479 C2.21921,9.59865 3.487355,8.87935 5.82835,7.69005 C6.4935,3.89673 8.9504,2.00007 13.1991,2.00007 C19.57205,2.00007 21.9999985,7.40305 21.9999985,10.8395 C21.9999985,14.276 19.06005,17.97815 14.87205,18.7764 C14.49755,19.3218 15.0377,20.39635 16.4924,22.00005" id="路径" stroke="#2D2F31" stroke-width="1.5" stroke-linecap="round" stroke-linejoin="round"></path>
                    <path d="M9.74985,7.25 C9.4232,8.5171 9.5204,9.4069 10.04145,9.91925 C10.5625,10.43165 11.45055,10.7667 12.7056,10.92445 C12.42085,12.5588 12.76805,13.32555 13.7471,13.22465 C14.7262,13.12375 15.31445,12.7169 15.51195,12.00415 C17.0421,12.4342 17.8714,12.0743 17.99985,10.92445 C18.1926,9.19965 17.2625,7.82375 16.8812,7.82375 C16.49985,7.82375 15.51195,7.77735 15.51195,7.25 C15.51195,6.7226 14.35795,6.42465 13.31645,6.42465 C12.27495,6.42465 12.90175,5.7226 11.4716,6 C10.51815,6.1849 9.94425,6.60155 9.74985,7.25 Z" id="路径" stroke="#2D2F31" stroke-width="1.5" fill="#2D2F31" stroke-linejoin="round"></path>
                    <path d="M15.2501,12.75005 C14.74165,13.06555 14.0439,13.5902 13.7501,14.00005 C13.01565,15.0248 12.4199,15.64875 12.28955,16.3041" id="路径" stroke="#333333" stroke-width="1.5" stroke-linecap="round"></path>
                </g>
            </g>
        </g>
    </g>
</svg>