<?xml version="1.0" encoding="UTF-8"?>
<svg width="26px" height="26px" viewBox="0 0 26 26" version="1.1" xmlns="http://www.w3.org/2000/svg" xmlns:xlink="http://www.w3.org/1999/xlink">
    <title>编组 12</title>
    <g id="页面-1" stroke="none" stroke-width="1" fill="none" fill-rule="evenodd">
        <g id="画板" transform="translate(-503.000000, -314.000000)">
            <g id="编组-12" transform="translate(503.000000, 314.000000)">
                <rect id="矩形备份-4" fill="#D8D8D8" opacity="0" x="0" y="0" width="26" height="26"></rect>
                <g id="点击_click-tap" transform="translate(1.000000, 1.000000)">
                    <rect id="矩形" fill-opacity="0.01" fill="#FFFFFF" x="0" y="0" width="24" height="24"></rect>
                    <g id="编组" transform="translate(4.000000, 2.500000)" stroke="#2D2F31" stroke-linecap="round" stroke-width="1.5">
                        <g transform="translate(3.500000, 3.500000)" id="路径" stroke-linejoin="round">
                            <path d="M0,7 L0,1.5 C0,0.671572875 0.671572875,0 1.5,0 C2.32842713,0 3,0.671572875 3,1.5 L3,7"></path>
                            <path d="M12,6.5 L12,9.75 C12,12.9256373 9.4256373,15.5 6.25,15.5 L5.75,15.5 C2.57436269,15.5 0,12.9256373 0,9.75 L0,6.5"></path>
                            <path d="M3,8.5 L3,7.55287645 L3,6 C3,5.1715729 3.67157287,4.5 4.5,4.5 C5.3284271,4.5 6,5.1715729 6,6 L6,7.59090185 L6,8.5"></path>
                            <path d="M6,8.5 L6,7.55287645 L6,6 C6,5.1715729 6.6715729,4.5 7.5,4.5 C8.3284271,4.5 9,5.1715729 9,6 L9,7.59090185 L9,8.5"></path>
                            <path d="M9,8.5 L9,7.55287645 L9,6 C9,5.1715729 9.6715729,4.5 10.5,4.5 C11.3284271,4.5 12,5.1715729 12,6 L12,7.59090185 L12,8.5"></path>
                        </g>
                        <path d="M10,5 C10,4.47444342 9.9189142,3.96782544 9.76857055,3.49197397 C9.60042045,2.95976356 9.34563545,2.46603911 9.0207634,2.02734851 C8.10989605,0.79735971 6.6480647,0 5,0 C3.35193531,0 1.89010397,0.79735971 0.97923658,2.02734851 C0.654364555,2.46603911 0.399579536,2.95976356 0.231429455,3.49197397 C0.081085787,3.96782544 0,4.47444342 0,5" id="路径"></path>
                    </g>
                </g>
            </g>
        </g>
    </g>
</svg>