<?xml version="1.0" encoding="UTF-8"?>
<svg width="30px" height="30px" viewBox="0 0 30 30" version="1.1" xmlns="http://www.w3.org/2000/svg" xmlns:xlink="http://www.w3.org/1999/xlink">
    <title>编组 20</title>
    <g id="页面-1" stroke="none" stroke-width="1" fill="none" fill-rule="evenodd">
        <g id="画板" transform="translate(-490.000000, -2075.000000)">
            <g id="编组-20" transform="translate(490.000000, 2075.000000)">
                <rect id="矩形备份-19" fill="#D8D8D8" opacity="0" x="0" y="0" width="30" height="30"></rect>
                <g id="沟通_communication" transform="translate(3.000000, 3.000000)">
                    <rect id="矩形" fill-opacity="0.01" fill="#FFFFFF" fill-rule="nonzero" x="0" y="0" width="24" height="24"></rect>
                    <polygon id="路径" stroke="#515151" stroke-width="1.5" stroke-linecap="round" stroke-linejoin="round" points="16.5 19 11 19 11 15 18 15 18 11 22 11 22 19 19.5 19 18 20.5"></polygon>
                    <polygon id="路径" stroke="#515151" stroke-width="1.5" fill="#515151" fill-rule="nonzero" stroke-linecap="round" stroke-linejoin="round" points="2 3 18 3 18 15 8.5 15 6.5 17 4.5 15 2 15"></polygon>
                    <line x1="9.5" y1="9" x2="10" y2="9" id="路径" stroke="#FFFFFF" stroke-width="1.5" stroke-linecap="round"></line>
                    <line x1="13" y1="9" x2="13.5" y2="9" id="路径" stroke="#FFFFFF" stroke-width="1.5" stroke-linecap="round"></line>
                    <line x1="6" y1="9" x2="6.5" y2="9" id="路径" stroke="#FFFFFF" stroke-width="1.5" stroke-linecap="round"></line>
                </g>
            </g>
        </g>
    </g>
</svg>