<?xml version="1.0" encoding="UTF-8"?>
<svg width="26px" height="26px" viewBox="0 0 26 26" version="1.1" xmlns="http://www.w3.org/2000/svg" xmlns:xlink="http://www.w3.org/1999/xlink">
    <title>编组 33</title>
    <g id="页面-1" stroke="none" stroke-width="1" fill="none" fill-rule="evenodd">
        <g id="画板" transform="translate(-1790.000000, -290.000000)">
            <g id="编组-34" transform="translate(1790.000000, 290.000000)">
                <g id="编组-33" transform="translate(0.375000, 1.000000)">
                    <g id="编组-32" transform="translate(-0.000000, -0.000000)">
                        <g id="编组-31" transform="translate(-0.000000, -0.000000)">
                            <path d="M10.75,1.77635684e-14 C16.6148053,1.77635684e-14 21.3946506,4.70088714 21.4983774,10.5562312 C21.5055857,10.97038 21.1757925,11.3120545 20.7616438,11.3193826 C20.5777352,11.3226368 20.4081181,11.259413 20.2757235,11.1518451 C16.02021,12.2046315 13.5160047,13.1956623 12.7631076,14.1249375 C11.9207784,15.1645957 12.0321443,17.126965 13.0972052,20.0120454 C13.2307645,20.120171 13.3280516,20.2745052 13.3621745,20.4566424 C13.4384493,20.8637726 13.1702379,21.2556498 12.7631076,21.3319245 C11.0185211,21.658768 9.18007523,21.5288681 7.2552642,20.9490155 L7.118,20.905 L2.92750628,22.7051861 C2.41464042,22.9254687 1.86347203,22.5299602 1.8814757,21.9949236 L1.89166969,21.8930854 L2.581,17.738 L2.3745655,17.4897262 C0.923565191,15.6894891 0.0825740874,13.4639942 0.00576994666,11.1048392 L-5.32907052e-14,10.75 C-5.32907052e-14,4.81291144 4.81291144,1.77635684e-14 10.75,1.77635684e-14 Z M7.078125,6.9583125 C6.3015,6.9583125 5.671875,7.592625 5.671875,8.375 C5.671875,9.1574375 6.3015,9.7916875 7.078125,9.7916875 C7.85475,9.7916875 8.484375,9.1574375 8.484375,8.375 C8.484375,7.592625 7.85475,6.9583125 7.078125,6.9583125 Z M12.703125,6.9583125 C11.9265,6.9583125 11.296875,7.592625 11.296875,8.375 C11.296875,9.1574375 11.9265,9.7916875 12.703125,9.7916875 C13.47975,9.7916875 14.109375,9.1574375 14.109375,8.375 C14.109375,7.592625 13.47975,6.9583125 12.703125,6.9583125 Z" id="形状结合" fill="#4DC731"></path>
                            <path d="M17.9375,9.375 C21.9760886,9.375 25.25,12.6489114 25.25,16.6875 C25.25,17.6955635 25.0454703,18.675879 24.654853,19.5813444 L25.239933,23.127529 C25.3335956,23.6934104 24.7889082,24.1364954 24.267992,23.9636227 L24.1707604,23.9238704 L21.9171403,22.8232016 C20.7444126,23.5854704 19.3715279,24 17.9375,24 C13.8989114,24 10.625,20.7260886 10.625,16.6875 C10.625,12.6489114 13.8989114,9.375 17.9375,9.375 Z M19.9296875,14.1249375 C19.3471875,14.1249375 18.875,14.600625 18.875,15.1874375 C18.875,15.77425 19.3471875,16.2499375 19.9296875,16.2499375 C20.5121875,16.2499375 20.984375,15.77425 20.984375,15.1874375 C20.984375,14.600625 20.5121875,14.1249375 19.9296875,14.1249375 Z M15.7109375,14.1249375 C15.1284375,14.1249375 14.65625,14.600625 14.65625,15.1874375 C14.65625,15.77425 15.1284375,16.2499375 15.7109375,16.2499375 C16.2934375,16.2499375 16.765625,15.77425 16.765625,15.1874375 C16.765625,14.600625 16.2934375,14.1249375 15.7109375,14.1249375 Z" id="形状结合" fill="#4F31C7"></path>
                        </g>
                    </g>
                </g>
            </g>
        </g>
    </g>
</svg>